<?xml version="1.0" standalone="no"?><!DOCTYPE svg PUBLIC "-//W3C//DTD SVG 1.1//EN" "http://www.w3.org/Graphics/SVG/1.1/DTD/svg11.dtd"><svg t="1592303827547" class="icon" viewBox="0 0 1024 1024" version="1.1" xmlns="http://www.w3.org/2000/svg" p-id="4695" xmlns:xlink="http://www.w3.org/1999/xlink" width="200" height="200"><defs><style type="text/css"></style></defs><path d="M678.4 822.857143h-296.228571a91.428571 91.428571 0 1 1-123.172572-103.350857L167.497143 201.142857H109.970286a18.285714 18.285714 0 1 1 0-36.571428H182.857143a18.285714 18.285714 0 0 1 17.993143 15.104l10.24 58.038857H402.285714a18.285714 18.285714 0 1 1 0 36.571428H217.563429l58.075428 329.142857h508.342857l58.221715-329.142857H621.714286a18.285714 18.285714 0 1 1 0-36.571428h242.285714a18.285714 18.285714 0 0 1 17.993143 21.467428l-64.731429 365.714286a18.285714 18.285714 0 0 1-17.993143 15.104H282.112l12.909714 73.142857a91.428571 91.428571 0 0 1 87.149715 73.142857h296.228571a91.465143 91.465143 0 1 1 0 36.571429zM493.714286 431.286857V182.857143a18.285714 18.285714 0 1 1 36.571428 0v248.429714l41.910857-41.947428a18.285714 18.285714 0 0 1 25.892572 25.892571l-73.142857 73.142857a18.285714 18.285714 0 0 1-25.892572 0l-73.142857-73.142857a18.285714 18.285714 0 0 1 25.892572-25.892571l41.910857 41.947428zM347.428571 804.571429a54.857143 54.857143 0 1 0-109.714285 0 54.857143 54.857143 0 0 0 109.714285 0z m475.428572 0a54.857143 54.857143 0 1 0-109.714286 0 54.857143 54.857143 0 0 0 109.714286 0z" p-id="4696"></path></svg>