<?xml version="1.0" standalone="no"?><!DOCTYPE svg PUBLIC "-//W3C//DTD SVG 1.1//EN" "http://www.w3.org/Graphics/SVG/1.1/DTD/svg11.dtd"><svg t="1591945819054" class="icon" viewBox="0 0 1024 1024" version="1.1" xmlns="http://www.w3.org/2000/svg" p-id="2626" xmlns:xlink="http://www.w3.org/1999/xlink" width="200" height="200"><defs><style type="text/css"></style></defs><path d="M734.188679 523.727698a47.62566 47.62566 0 0 1 0-95.212679 47.62566 47.62566 0 0 1 0 95.212679z m-444.377358 0a47.62566 47.62566 0 0 1 0-95.212679 47.62566 47.62566 0 0 1 0 95.212679z m31.744-269.795019c0-105.008302 85.436377-190.444679 190.444679-190.444679s190.444679 85.436377 190.444679 190.444679v126.956679H321.555321v-126.956679z m571.334037 126.956679h-126.956679v-126.956679C765.932679 113.702642 652.230038 0 512 0 371.769962 0 258.067321 113.702642 258.067321 253.932679v126.956679H131.110642L67.622642 1015.711396h888.754716l-63.488-634.822038z" p-id="2627"></path></svg>