<svg xmlns="http://www.w3.org/2000/svg" width="28.839" height="28.839" viewBox="0 0 28.839 28.839"><defs><style>.a{fill:#7882a2;}.b{fill:none;}</style></defs><g transform="translate(3.576 6.332)"><path class="a" d="M6.744,6.338l1.532,7.225h0a.169.169,0,0,0,.168.134h11.35a.169.169,0,0,0,.162-.123l2.512-7.617h0a.169.169,0,0,0-.175-.221H7.648L6.836,1.91a.51.51,0,0,0-.5-.411H1.352a.506.506,0,1,0,0,1.011H5.931l.615,2.9c.066.31.132.618.2.929Z" transform="translate(-0.847 -1.499)"/><path class="a" d="M5.841,4.623a1.169,1.169,0,1,1-.827.343A1.166,1.166,0,0,1,5.841,4.623Z" transform="translate(11.488 8.574)"/><path class="a" d="M3.988,4.623a1.169,1.169,0,1,1-.827.343A1.166,1.166,0,0,1,3.988,4.623Z" transform="translate(5.512 8.574)"/></g><rect class="b" width="28.839" height="28.839"/></svg>