<svg xmlns="http://www.w3.org/2000/svg" width="21.492" height="12.47" viewBox="0 0 21.492 12.47"><defs><style>.a{fill:#29b446;}</style></defs><g transform="translate(0 0)"><path class="a" d="M24.7,16.73h0a1.5,1.5,0,0,1-1.5-1.5V12.841l-5.7,5.7a1.5,1.5,0,0,1-2.127,0L11.914,15.1l-4.64,4.64a1.5,1.5,0,1,1-2.126-2.126l5.7-5.7a1.5,1.5,0,0,1,2.127,0l3.448,3.448,4.64-4.64H18.681a1.5,1.5,0,0,1-1.5-1.5h0a1.5,1.5,0,0,1,1.5-1.5H24.7a1.5,1.5,0,0,1,1.5,1.5v6.015a1.5,1.5,0,0,1-1.5,1.5Z" transform="translate(-4.707 -7.707)"/></g></svg>