<svg xmlns="http://www.w3.org/2000/svg" width="18.422" height="18.4" viewBox="0 0 18.422 18.4"><defs><style>.a{fill:#f90;}</style></defs><path class="a" d="M18.794,9.991a2.124,2.124,0,0,0,.5-2.141,2.032,2.032,0,0,0-1.631-1.422l-3.713-.552a.393.393,0,0,1-.3-.226L11.977,2.163A2,2,0,0,0,10.2,1h0A1.982,1.982,0,0,0,8.381,2.171l-1.673,3.5a.385.385,0,0,1-.3.226L2.7,6.47A2.007,2.007,0,0,0,1.08,7.891a2.116,2.116,0,0,0,.51,2.141l2.752,2.718a.41.41,0,0,1,.117.36l-.627,3.847A2.116,2.116,0,0,0,4.668,19a1.924,1.924,0,0,0,1.171.4,2.007,2.007,0,0,0,.945-.243l3.345-1.823a.376.376,0,0,1,.376,0l3.345,1.806a1.949,1.949,0,0,0,2.116-.167,2.133,2.133,0,0,0,.836-2.049l-.644-3.839a.427.427,0,0,1,.109-.368ZM14.98,11.521a2.158,2.158,0,0,0-.6,1.848l.644,3.847a.4.4,0,0,1-.151.4.385.385,0,0,1-.418,0l-3.345-1.806a1.957,1.957,0,0,0-1.873,0L5.889,17.635a.385.385,0,0,1-.418,0,.393.393,0,0,1-.159-.4l.7-3.839a2.158,2.158,0,0,0-.577-1.848l-2.7-2.718a.41.41,0,0,1-.067-.418A.4.4,0,0,1,3,8.126l3.7-.569A2.007,2.007,0,0,0,8.172,6.411l1.673-3.5a.39.39,0,0,1,.711-.008l1.673,3.5a2.032,2.032,0,0,0,1.514,1.137l3.713.552a.376.376,0,0,1,.318.276.4.4,0,0,1-.1.427Z" transform="translate(-0.977 -1)"/></svg>