<?xml version="1.0" standalone="no"?><!DOCTYPE svg PUBLIC "-//W3C//DTD SVG 1.1//EN" "http://www.w3.org/Graphics/SVG/1.1/DTD/svg11.dtd"><svg t="1592056943163" class="icon" viewBox="0 0 1024 1024" version="1.1" xmlns="http://www.w3.org/2000/svg" p-id="1141" xmlns:xlink="http://www.w3.org/1999/xlink" width="200" height="200"><defs><style type="text/css"></style></defs><path d="M426.666667 469.333333H170.666667c-23.466667 0-42.666667-19.2-42.666667-42.666666V170.666667c0-23.466667 19.2-42.666667 42.666667-42.666667h256c23.466667 0 42.666667 19.2 42.666666 42.666667v256c0 23.466667-19.2 42.666667-42.666666 42.666666z m-213.333334-85.333333h170.666667v-170.666667h-170.666667v170.666667zM853.333333 469.333333H597.333333c-23.466667 0-42.666667-19.2-42.666666-42.666666V170.666667c0-23.466667 19.2-42.666667 42.666666-42.666667h256c23.466667 0 42.666667 19.2 42.666667 42.666667v256c0 23.466667-19.2 42.666667-42.666667 42.666666z m-213.333333-85.333333h170.666667v-170.666667h-170.666667v170.666667zM853.333333 896H597.333333c-23.466667 0-42.666667-19.2-42.666666-42.666667V597.333333c0-23.466667 19.2-42.666667 42.666666-42.666666h256c23.466667 0 42.666667 19.2 42.666667 42.666666v256c0 23.466667-19.2 42.666667-42.666667 42.666667z m-213.333333-85.333333h170.666667v-170.666667h-170.666667v170.666667zM426.666667 896H170.666667c-23.466667 0-42.666667-19.2-42.666667-42.666667V597.333333c0-23.466667 19.2-42.666667 42.666667-42.666666h256c23.466667 0 42.666667 19.2 42.666666 42.666666v256c0 23.466667-19.2 42.666667-42.666666 42.666667z m-213.333334-85.333333h170.666667v-170.666667h-170.666667v170.666667z" p-id="1142"></path></svg>